<svg width="499" height="201" viewBox="0 0 499 201" fill="none" xmlns="http://www.w3.org/2000/svg">
<path d="M385.011 28.256C305.67 -11.809 153.108 -5.0308 74.7969 30.0281C39.1321 45.9951 -26.6328 92.2599 13.3855 135.94C20.4437 143.644 29.0232 149.903 37.8998 155.319C135.591 214.921 271.844 208.851 376.688 173.188C392.324 167.869 407.711 161.555 421.867 152.974C432.454 146.555 442.69 138.6 450.935 129.316C475.07 102.138 468.766 74.7864 442.798 51.7451C412.691 25.0304 371.52 16.7517 332.673 12.2178C298.703 8.2533 264.776 7.49201 230.646 9.11004C166.637 12.1441 92.8713 16.9719 39.1869 53.4957C15.7389 69.4487 -9.45285 103.538 10.6462 131.128C32.4262 161.025 83.7809 170.706 118.322 177.014C211.505 194.034 358.945 185.595 443.823 140.932C452.976 136.116 462.248 131.627 470.436 125.294C476.906 120.289 483.1 114.583 488.474 108.407C526.556 64.6417 441.579 37.1239 411.61 32.3982C317.332 17.5319 177.795 -3.92164 90.9692 35.6255" stroke="white" stroke-width="0.873615" stroke-miterlimit="1.5" stroke-linecap="round" stroke-linejoin="round"/>
</svg>
