<svg width="1880" height="1970" viewBox="0 0 1880 1970" fill="none" xmlns="http://www.w3.org/2000/svg">
<path d="M1264.67 1799.18C930.588 2023.44 579.177 2217.91 234.76 2424.81" stroke="white" stroke-width="2.93433" stroke-miterlimit="1.5" stroke-linecap="round" stroke-linejoin="round"/>
<path d="M1514.02 1649.93C1489.15 1661.8 1464.54 1674.08 1440.19 1686.99" stroke="white" stroke-width="2.93433" stroke-miterlimit="1.5" stroke-linecap="round" stroke-linejoin="round"/>
<path d="M-48.6317 2225.74C427.511 1999.33 880.287 1704.9 1324.99 1422.87" stroke="white" stroke-width="2.93433" stroke-miterlimit="1.5" stroke-linecap="round" stroke-linejoin="round"/>
<path d="M1698.13 1156.73C1655.43 1186.6 1611.52 1213.41 1567.44 1241.02" stroke="white" stroke-width="2.93433" stroke-miterlimit="1.5" stroke-linecap="round" stroke-linejoin="round"/>
<path d="M917.142 1347.9C804.905 1409.4 701.494 1485.95 592.147 1552.14C395.879 1670.93 192.085 1774.62 -10.3127 1882.18" stroke="white" stroke-width="2.93433" stroke-miterlimit="1.5" stroke-linecap="round" stroke-linejoin="round"/>
<path d="M1084.35 1247.57C1140.46 1211.61 1195.9 1174.18 1250.06 1135.29" stroke="white" stroke-width="2.93433" stroke-miterlimit="1.5" stroke-linecap="round" stroke-linejoin="round"/>
<path d="M290.284 1404.47C444.974 1308.79 603.462 1219.74 758.607 1125.02" stroke="white" stroke-width="2.93433" stroke-miterlimit="1.5" stroke-linecap="round" stroke-linejoin="round"/>
<path d="M950.423 1011.35C994.196 982.181 1038.3 953.297 1081.51 923.288" stroke="white" stroke-width="2.93433" stroke-miterlimit="1.5" stroke-linecap="round" stroke-linejoin="round"/>
<path d="M-293.205 1425.84C-13.4075 1286.49 250.485 1118.47 528.38 976.722" stroke="white" stroke-width="2.93433" stroke-miterlimit="1.5" stroke-linecap="round" stroke-linejoin="round"/>
<path d="M659.152 901.776C680.903 889.62 702.924 877.786 724.226 864.853" stroke="white" stroke-width="2.93433" stroke-miterlimit="1.5" stroke-linecap="round" stroke-linejoin="round"/>
<path d="M856.875 450.411C613.465 640.201 334.235 810.245 61.6442 954.84" stroke="white" stroke-width="2.93433" stroke-miterlimit="1.5" stroke-linecap="round" stroke-linejoin="round"/>
<path d="M1088.6 267.244C1065.74 284.304 1042.35 300.365 1018.38 315.818" stroke="white" stroke-width="2.93433" stroke-miterlimit="1.5" stroke-linecap="round" stroke-linejoin="round"/>
</svg>
